<?xml version="1.0" standalone="no"?>
<!DOCTYPE svg PUBLIC "-//W3C//DTD SVG 20010904//EN"
 "http://www.w3.org/TR/2001/REC-SVG-20010904/DTD/svg10.dtd">
<svg version="1.0" xmlns="http://www.w3.org/2000/svg"
 width="233.000000pt" height="216.000000pt" viewBox="0 0 233.000000 216.000000"
 preserveAspectRatio="xMidYMid meet">

<g transform="translate(0.000000,216.000000) scale(0.100000,-0.100000)"
fill="#000000" stroke="none">
<path d="M1099 2132 c-28 -25 -34 -37 -34 -72 0 -35 6 -47 33 -71 44 -40 93
-40 133 0 60 60 27 156 -57 168 -36 5 -46 1 -75 -25z"/>
<path d="M1080 1804 c-152 -28 -273 -94 -373 -204 -137 -152 -188 -376 -131
-572 42 -140 156 -289 275 -356 l56 -32 6 -145 c9 -212 -2 -279 -52 -314 -65
-46 -121 -33 -277 65 -90 55 -120 57 -140 9 -18 -44 -6 -72 59 -132 148 -137
375 -153 489 -36 65 67 68 83 68 361 0 291 5 275 -114 341 -280 153 -330 525
-100 741 95 88 196 130 319 130 280 0 500 -256 458 -530 -23 -145 -103 -261
-235 -337 -127 -74 -119 -52 -116 -363 l3 -267 28 -41 c36 -55 86 -87 169
-109 58 -15 74 -16 129 -4 114 23 246 108 285 184 14 26 13 31 -3 60 -28 48
-53 45 -144 -13 -145 -93 -196 -107 -256 -70 -64 38 -68 53 -71 270 l-3 195
62 35 c75 42 172 137 217 212 201 338 41 768 -334 894 -75 25 -213 39 -274 28z"/>
<path d="M419 1718 c-97 -65 -360 -331 -392 -397 -44 -89 -35 -150 36 -256 95
-141 355 -355 432 -355 38 0 61 27 50 60 -3 11 -41 48 -83 82 -185 149 -296
264 -323 336 -16 43 17 88 215 290 179 183 196 203 196 235 0 35 -12 47 -50
47 -10 0 -46 -19 -81 -42z"/>
<path d="M1792 1748 c-7 -7 -12 -25 -12 -41 0 -25 30 -61 193 -226 106 -108
200 -213 210 -233 17 -35 17 -40 2 -72 -31 -64 -122 -162 -258 -274 -75 -63
-139 -122 -142 -132 -11 -33 12 -60 50 -60 76 0 335 213 432 356 69 101 79
169 36 254 -30 61 -190 231 -317 339 -113 95 -164 119 -194 89z"/>
<path d="M1084 1419 c-48 -14 -120 -83 -139 -134 -26 -66 -17 -160 18 -214
100 -151 331 -140 411 20 47 96 32 194 -42 268 -66 65 -156 87 -248 60z"/>
<path d="M59 771 c-40 -40 -40 -89 0 -133 25 -28 36 -33 72 -32 56 2 99 46 99
100 0 85 -109 127 -171 65z"/>
<path d="M2139 787 c-73 -56 -35 -177 56 -177 47 0 71 14 91 52 19 37 12 83
-18 115 -16 18 -32 23 -67 23 -25 0 -53 -6 -62 -13z"/>
</g>
</svg>
